<svg version="1" xmlns="http://www.w3.org/2000/svg" width="682.667" height="682.667" viewBox="0 0 512.000000 512.000000"><path d="M260.5 109.1c-25.5 3.4-51.3 14.6-75.5 32.8-12.1 9.1-37.2 34.7-45.2 46.1-17.6 25-25.8 49-25.8 75.4 0 24 7 42.8 20.9 56.6 8.9 8.8 15.9 13.2 27.3 17.1 20.1 6.8 43.6 6.3 68.3-1.7 18.7-6.1 45.4-21.4 64.5-37 4.7-3.9 9.2-7.4 10-7.9 1.7-1.1-11.8 18.6-21.6 31.5-19.1 24.9-32.1 36.5-52.1 46.6l-8.2 4.1-15.8-3.8c-21.5-5.3-46.8-10.4-64.3-13-19.5-3-49.5-3.2-61.9-.6-14.8 3.2-21.1 8.1-21.1 16.4 0 3.9.5 5 3.5 7.9 8.4 7.9 24.5 10.8 60.5 10.8 26.5 0 44.3-1.4 62.8-4.9l7.4-1.4 21.1 6.5c28.7 8.9 56.4 15.8 73.8 18.5 11.3 1.7 19.1 2.2 35.9 2.3 24.3.1 34.7-1.3 47.9-6.4 11.1-4.3 24.1-13.7 24.1-17.4 0-1.4-2.5-.3-7.3 3.3-20.3 15.1-38 15.9-85.6 3.5-39.4-10.2-73.6-19.4-75.6-20.3-1.7-.8-1.8-1-.2-1 3.7-.2 26.6-8.5 36.2-13.2 25.8-12.5 42.1-27.2 59.9-53.9 8.7-13 20.2-33.4 25.6-45.5 2.3-5.2 4.1-7.7 7.1-9.9 14.2-10.1 42.4-36.7 60.1-56.9 26.9-30.4 40.8-51.5 40.8-61.8 0-6-1.7-7.4-9-7.4-11.6.1-28.8 11.4-50.9 33.6-26.6 26.7-40.3 45.5-76.6 105.6l-9.8 16.2-11.1 8.9c-45 36.2-73.7 49.2-107.9 49.2-28.4-.1-51-12.5-60.1-33.1-3.5-8-4.8-15.7-4.7-28.5.2-41.7 20.5-82.4 59.9-120.5 30.3-29.4 61-43.9 92.8-43.9 16.2 0 28.8 4.8 38.7 14.7 13.6 13.6 17 32.9 10.2 56.8-9.8 34.5-45.5 78.5-76.8 95-12.7 6.6-17.6 8-29.7 8-9.3 0-11.2-.3-16.1-2.6-12-5.7-18.2-14.4-18.3-25.9-.1-7.9.8-11.6 3-12.4 2.2-.8 2.4-.6 3 4 1.1 8 1.3 8.3 5.4 9.5 3.1.9 4.9.9 7.9.1 5-1.5 10.8-7.9 11.7-12.8 2.9-15.7-15.4-21-27.5-7.9-5.7 6.2-7.4 10.6-7.5 19.5-.1 6.7.3 8.4 3.2 14.3 10.2 20.6 35.8 25.3 63.8 11.7 13.2-6.4 23.2-14.1 37.4-28.6 16.8-17.2 26.7-30.8 35.4-48.1 13.8-27.7 15.9-54.9 5.8-73.6-5.4-10.1-18.8-19.6-32.7-23.2-7.3-2-27.4-2.7-37-1.4zm193.3 19.1c6.3 6.3-11.5 33.3-48.1 73-16.4 17.6-48.7 47.5-48.7 44.8 0-1.5 17.5-36.1 24.1-47.5 23.8-41.5 52.1-71 68.5-71.4 1.6-.1 3.5.4 4.2 1.1zM110.1 362.1c19.1 3.2 75.9 18.2 75.9 20 0 .8-14.4 2.7-31.7 4-18.1 1.5-56.9.6-68.7-1.5C70.4 381.8 63 377.3 63 371c0-1.6 1.1-3.8 2.6-5.4 2.4-2.3 4.6-3.2 11.9-4.9 5.2-1.2 21.3-.5 32.6 1.4z"/></svg>